<svg width="15" height="20" viewBox="0 0 15 20" fill="none" xmlns="http://www.w3.org/2000/svg">
<path fill-rule="evenodd" clip-rule="evenodd" d="M6.44937 19.2858C5.89103 18.1779 4.66272 15.4862 4.21612 13.5833C4.20933 13.5546 4.20266 13.526 4.19587 13.4968C3.64457 11.149 3.11289 8.88511 4.21612 6.26403C5.10945 4.14202 6.46802 1.6801 7.03562 0.714417C7.11946 1.16164 7.3706 2.19041 7.70571 2.72702C7.8198 2.90976 7.9897 3.16276 8.18589 3.4544C8.70942 4.23327 9.41852 5.28822 9.7435 6.02042C10.1902 7.02672 10.8602 9.13095 10.4415 11.357C10.0228 13.5831 7.56606 19.2857 7.34233 19.2857H7.28528V15.6546V15.6546C7.4794 15.6546 7.63199 15.4886 7.61567 15.2952L7.45056 13.3387C7.42107 12.9892 7.6768 12.6798 7.92423 12.4313C7.98664 12.3686 8.04709 12.2979 8.11055 12.2201C8.32053 11.9625 8.4374 11.6416 8.44222 11.3094C8.42601 10.9165 8.25854 10.5452 7.97484 10.2729C7.69114 10.0007 7.31318 9.84868 6.91999 9.84868C6.5268 9.84868 6.14884 10.0007 5.86514 10.2729C5.58144 10.5452 5.41397 10.9165 5.39776 11.3094C5.40259 11.6417 5.51949 11.9626 5.72953 12.2201C5.78429 12.2873 5.83479 12.3466 5.88527 12.3988C6.12879 12.6509 6.38955 12.9519 6.36045 13.3012L6.19676 15.2654C6.1793 15.4749 6.34467 15.6546 6.55494 15.6546V15.6546V19.2858H6.44937Z" fill="white" fill-opacity="0.8"/>
</svg>
