<svg width="16" height="16" viewBox="0 0 16 16" fill="none" xmlns="http://www.w3.org/2000/svg">
<path d="M14.407 8.13526C14.8238 8.13526 15.1322 8.22665 15.3322 8.40942C15.5321 8.59219 15.6321 8.88335 15.632 9.28292V11.66H15.2237L15.1152 11.1256H15.0897C14.962 11.2943 14.8013 11.4353 14.6175 11.5401C14.4559 11.6293 14.2304 11.6739 13.9412 11.6739C13.6306 11.6739 13.3733 11.5932 13.1691 11.4317C12.9649 11.2659 12.8628 11.0088 12.8629 10.6602C12.8563 10.5059 12.8899 10.3525 12.9603 10.2151C13.0308 10.0776 13.1357 9.96078 13.2649 9.87603C13.5328 9.68903 13.9455 9.58702 14.5027 9.57001L15.0833 9.55091V9.34689C15.0833 9.06201 15.0216 8.86437 14.8982 8.75396C14.7749 8.64355 14.6005 8.5883 14.375 8.58822C14.2015 8.58738 14.029 8.61538 13.8646 8.67106C13.7095 8.71952 13.5581 8.77919 13.4116 8.84962L13.2393 8.42883C13.4074 8.3406 13.5851 8.27214 13.7689 8.22482C13.9762 8.16477 14.1911 8.13461 14.407 8.13526ZM15.0769 9.93952L14.5729 9.95863C14.1475 9.9756 13.8519 10.0436 13.6859 10.1626C13.607 10.2199 13.5435 10.296 13.5011 10.3839C13.4588 10.4718 13.439 10.5689 13.4435 10.6663C13.4435 10.8576 13.5009 10.9979 13.6157 11.0871C13.7479 11.1804 13.9071 11.2274 14.0688 11.221C14.3295 11.2305 14.5851 11.1469 14.7898 10.9851C14.981 10.8236 15.0767 10.5771 15.0767 10.2455L15.0769 9.93952Z" fill="#04C4D9"/>
<path d="M5.7752 11.6855C5.35268 11.6855 5.01467 11.5398 4.76117 11.2483C4.50747 10.9525 4.38062 10.513 4.38062 9.92994C4.38062 9.34684 4.50737 8.90743 4.76087 8.61173C5.0186 8.31171 5.35872 8.1617 5.78124 8.1617C6.0038 8.15231 6.22481 8.20264 6.42136 8.30748C6.58123 8.39675 6.72136 8.51749 6.83329 8.66239H6.87133C6.86726 8.60745 6.85879 8.52718 6.84593 8.42157C6.83751 8.31169 6.83329 8.22507 6.83329 8.1617V6.95605H7.39101V11.6735H6.94104L6.85863 11.1659H6.83329C6.72534 11.3155 6.58713 11.4407 6.42765 11.5335C6.22797 11.6424 6.00244 11.6949 5.7752 11.6855ZM5.86402 11.2229C6.22317 11.2229 6.47455 11.1257 6.61817 10.9314C6.76602 10.7328 6.83997 10.4349 6.84001 10.0377V9.93605C6.84001 9.51357 6.7703 9.19036 6.63087 8.9664C6.49144 8.73821 6.23371 8.62412 5.85767 8.62412C5.72256 8.61762 5.58822 8.64777 5.46884 8.71136C5.34947 8.77496 5.2495 8.86964 5.17952 8.98539C5.03162 9.222 4.95768 9.541 4.95768 9.94239C4.95768 10.348 5.03162 10.6627 5.17952 10.8867C5.3316 11.1108 5.55977 11.2229 5.86402 11.2229Z" fill="#04C4D9"/>
<path d="M3.38539 8.13525V10.2535C3.38902 10.5075 3.33277 10.7588 3.22118 10.987C3.10888 11.2052 2.93338 11.3845 2.71761 11.5015C2.49504 11.6256 2.21043 11.6876 1.86377 11.6876C1.37846 11.6876 1.00812 11.5562 0.752749 11.2935C0.500916 11.0275 0.375 10.6774 0.375 10.2431V8.13525H0.867636V10.2596C0.867636 10.5771 0.951553 10.8233 1.11939 10.9983C1.29088 11.1733 1.54813 11.2608 1.89112 11.2608C2.24519 11.2608 2.50062 11.1677 2.65742 10.9817C2.81797 10.7919 2.89825 10.5492 2.89825 10.2536V8.13525H3.38539Z" fill="#04C4D9"/>
<path d="M0.574689 13.1829H0.955179V13.2695H0.468262V12.4666H0.574689V13.1829Z" fill="#807D7D"/>
<path d="M1.30755 13.2805C1.22667 13.2805 1.16086 13.254 1.11013 13.2011C1.0594 13.1478 1.03403 13.0767 1.03403 12.9877V12.969C1.03403 12.9098 1.04525 12.857 1.06767 12.8107C1.09046 12.764 1.12208 12.7276 1.16252 12.7015C1.20332 12.675 1.24744 12.6618 1.29486 12.6618C1.37243 12.6618 1.43272 12.6874 1.47573 12.7385C1.51875 12.7896 1.54025 12.8627 1.54025 12.9579V13.0004H1.13605C1.13752 13.0592 1.15461 13.1068 1.18733 13.1432C1.22042 13.1792 1.26233 13.1972 1.31306 13.1972C1.34909 13.1972 1.3796 13.1899 1.4046 13.1752C1.4296 13.1605 1.45147 13.141 1.47022 13.1167L1.53253 13.1653C1.48253 13.2421 1.40754 13.2805 1.30755 13.2805ZM1.29486 12.7456C1.25369 12.7456 1.21913 12.7607 1.19119 12.7908C1.16325 12.8206 1.14598 12.8625 1.13936 12.9166H1.43824V12.9088C1.43529 12.857 1.42133 12.8169 1.39633 12.7886C1.37133 12.76 1.33751 12.7456 1.29486 12.7456Z" fill="#807D7D"/>
<path d="M2.02717 13.2695C2.02129 13.2577 2.01651 13.2368 2.01283 13.2066C1.96541 13.2559 1.90879 13.2805 1.84299 13.2805C1.78417 13.2805 1.73583 13.264 1.69796 13.2309C1.66046 13.1974 1.64172 13.1552 1.64172 13.1041C1.64172 13.0419 1.66524 12.9938 1.7123 12.9596C1.75972 12.925 1.82626 12.9077 1.91192 12.9077H2.01118V12.8609C2.01118 12.8252 2.00052 12.7969 1.97919 12.776C1.95787 12.7546 1.92644 12.744 1.8849 12.744C1.8485 12.744 1.81799 12.7532 1.79336 12.7715C1.76873 12.7899 1.75641 12.8122 1.75641 12.8383H1.65385C1.65385 12.8085 1.66432 12.7798 1.68528 12.7522C1.7066 12.7243 1.73528 12.7022 1.7713 12.6861C1.8077 12.6699 1.84758 12.6618 1.89096 12.6618C1.95971 12.6618 2.01357 12.6791 2.05253 12.7136C2.0915 12.7478 2.11172 12.7951 2.11319 12.8554V13.13C2.11319 13.1847 2.12018 13.2283 2.13415 13.2607V13.2695H2.02717ZM1.85788 13.1917C1.88986 13.1917 1.92019 13.1835 1.94886 13.1669C1.97754 13.1504 1.99831 13.1289 2.01118 13.1024V12.98H1.93122C1.80623 12.98 1.74373 13.0166 1.74373 13.0897C1.74373 13.1217 1.75439 13.1467 1.77571 13.1647C1.79704 13.1827 1.82442 13.1917 1.85788 13.1917Z" fill="#807D7D"/>
<path d="M2.56151 12.7644C2.54607 12.7618 2.52934 12.7605 2.51133 12.7605C2.44442 12.7605 2.39902 12.789 2.37512 12.846V13.2695H2.27311V12.6728H2.37237L2.37402 12.7418C2.40747 12.6885 2.4549 12.6618 2.51629 12.6618C2.53614 12.6618 2.55122 12.6644 2.56151 12.6695V12.7644Z" fill="#807D7D"/>
<path d="M2.75231 12.6728L2.75561 12.7478C2.8012 12.6905 2.86075 12.6618 2.93428 12.6618C3.06037 12.6618 3.12397 12.7329 3.12508 12.8752V13.2695H3.02306V12.8747C3.02269 12.8316 3.01277 12.7998 2.99328 12.7793C2.97417 12.7587 2.9442 12.7484 2.9034 12.7484C2.87031 12.7484 2.84127 12.7572 2.81627 12.7748C2.79127 12.7925 2.77179 12.8157 2.75782 12.8443V13.2695H2.6558V12.6728H2.75231Z" fill="#807D7D"/>
<path d="M3.38976 13.2695H3.28775V12.6728H3.38976V13.2695ZM3.27948 12.5146C3.27948 12.498 3.28444 12.4841 3.29437 12.4727C3.30466 12.4613 3.31973 12.4556 3.33958 12.4556C3.35944 12.4556 3.37451 12.4613 3.3848 12.4727C3.39509 12.4841 3.40024 12.498 3.40024 12.5146C3.40024 12.5311 3.39509 12.5449 3.3848 12.5559C3.37451 12.567 3.35944 12.5725 3.33958 12.5725C3.31973 12.5725 3.30466 12.567 3.29437 12.5559C3.28444 12.5449 3.27948 12.5311 3.27948 12.5146Z" fill="#807D7D"/>
<path d="M3.65004 12.6728L3.65335 12.7478C3.69894 12.6905 3.75849 12.6618 3.83201 12.6618C3.95811 12.6618 4.02171 12.7329 4.02281 12.8752V13.2695H3.9208V12.8747C3.92043 12.8316 3.9105 12.7998 3.89102 12.7793C3.8719 12.7587 3.84194 12.7484 3.80113 12.7484C3.76805 12.7484 3.73901 12.7572 3.71401 12.7748C3.68901 12.7925 3.66953 12.8157 3.65556 12.8443V13.2695H3.55354V12.6728H3.65004Z" fill="#807D7D"/>
<path d="M4.1524 12.9662C4.1524 12.8732 4.1739 12.7993 4.21692 12.7445C4.25993 12.6894 4.31691 12.6618 4.38786 12.6618C4.46065 12.6618 4.51745 12.6875 4.55825 12.739L4.56322 12.6728H4.65641V13.2551C4.65641 13.3323 4.63343 13.3932 4.58748 13.4377C4.5419 13.4822 4.4805 13.5044 4.4033 13.5044C4.36029 13.5044 4.3182 13.4952 4.27702 13.4768C4.23585 13.4584 4.20442 13.4333 4.18273 13.4013L4.23567 13.3401C4.27941 13.3941 4.3329 13.4211 4.39613 13.4211C4.44576 13.4211 4.48436 13.4072 4.51193 13.3792C4.53987 13.3513 4.55384 13.3119 4.55384 13.2612V13.2099C4.51304 13.257 4.45734 13.2805 4.38676 13.2805C4.31691 13.2805 4.2603 13.2524 4.21692 13.1961C4.1739 13.1399 4.1524 13.0632 4.1524 12.9662ZM4.25497 12.9778C4.25497 13.0451 4.26875 13.098 4.29632 13.1366C4.32389 13.1748 4.3625 13.1939 4.41212 13.1939C4.47646 13.1939 4.5237 13.1647 4.55384 13.1063V12.8339C4.52259 12.7769 4.47572 12.7484 4.41323 12.7484C4.3636 12.7484 4.32481 12.7677 4.29687 12.8063C4.26894 12.8449 4.25497 12.902 4.25497 12.9778Z" fill="#807D7D"/>
<path d="M5.24369 12.4666L5.50617 13.1217L5.76865 12.4666H5.90596V13.2695H5.80009V12.9568L5.81001 12.6193L5.54643 13.2695H5.46536L5.20233 12.621L5.21281 12.9568V13.2695H5.10693V12.4666H5.24369Z" fill="#807D7D"/>
<path d="M6.44526 13.2695C6.43938 13.2577 6.4346 13.2368 6.43093 13.2066C6.3835 13.2559 6.32689 13.2805 6.26109 13.2805C6.20227 13.2805 6.15392 13.264 6.11606 13.2309C6.07856 13.1974 6.05981 13.1552 6.05981 13.1041C6.05981 13.0419 6.08334 12.9938 6.1304 12.9596C6.17782 12.925 6.24436 12.9077 6.33002 12.9077H6.42927V12.8609C6.42927 12.8252 6.41861 12.7969 6.39729 12.776C6.37597 12.7546 6.34454 12.744 6.30299 12.744C6.2666 12.744 6.23609 12.7532 6.21146 12.7715C6.18683 12.7899 6.17451 12.8122 6.17451 12.8383H6.07194C6.07194 12.8085 6.08242 12.7798 6.10338 12.7522C6.1247 12.7243 6.15337 12.7022 6.1894 12.6861C6.22579 12.6699 6.26568 12.6618 6.30906 12.6618C6.37781 12.6618 6.43166 12.6791 6.47063 12.7136C6.5096 12.7478 6.52982 12.7951 6.53129 12.8554V13.13C6.53129 13.1847 6.53827 13.2283 6.55224 13.2607V13.2695H6.44526ZM6.27597 13.1917C6.30796 13.1917 6.33829 13.1835 6.36696 13.1669C6.39564 13.1504 6.41641 13.1289 6.42927 13.1024V12.98H6.34932C6.22432 12.98 6.16183 13.0166 6.16183 13.0897C6.16183 13.1217 6.17249 13.1467 6.19381 13.1647C6.21513 13.1827 6.24252 13.1917 6.27597 13.1917Z" fill="#807D7D"/>
<path d="M6.78771 12.6728L6.79101 12.7478C6.8366 12.6905 6.89615 12.6618 6.96968 12.6618C7.09577 12.6618 7.15937 12.7329 7.16048 12.8752V13.2695H7.05846V12.8747C7.05809 12.8316 7.04817 12.7998 7.02868 12.7793C7.00957 12.7587 6.97961 12.7484 6.9388 12.7484C6.90571 12.7484 6.87667 12.7572 6.85167 12.7748C6.82667 12.7925 6.80719 12.8157 6.79322 12.8443V13.2695H6.69121V12.6728H6.78771Z" fill="#807D7D"/>
<path d="M7.68268 13.2695C7.6768 13.2577 7.67202 13.2368 7.66835 13.2066C7.62092 13.2559 7.56431 13.2805 7.49851 13.2805C7.43969 13.2805 7.39134 13.264 7.35348 13.2309C7.31598 13.1974 7.29723 13.1552 7.29723 13.1041C7.29723 13.0419 7.32076 12.9938 7.36782 12.9596C7.41524 12.925 7.48178 12.9077 7.56744 12.9077H7.66669V12.8609C7.66669 12.8252 7.65603 12.7969 7.63471 12.776C7.61339 12.7546 7.58196 12.744 7.54041 12.744C7.50402 12.744 7.47351 12.7532 7.44888 12.7715C7.42425 12.7899 7.41193 12.8122 7.41193 12.8383H7.30936C7.30936 12.8085 7.31984 12.7798 7.3408 12.7522C7.36212 12.7243 7.39079 12.7022 7.42682 12.6861C7.46321 12.6699 7.5031 12.6618 7.54648 12.6618C7.61523 12.6618 7.66908 12.6791 7.70805 12.7136C7.74702 12.7478 7.76724 12.7951 7.76871 12.8554V13.13C7.76871 13.1847 7.77569 13.2283 7.78966 13.2607V13.2695H7.68268ZM7.51339 13.1917C7.54538 13.1917 7.57571 13.1835 7.60438 13.1669C7.63306 13.1504 7.65383 13.1289 7.66669 13.1024V12.98H7.58674C7.46174 12.98 7.39925 13.0166 7.39925 13.0897C7.39925 13.1217 7.40991 13.1467 7.43123 13.1647C7.45255 13.1827 7.47994 13.1917 7.51339 13.1917Z" fill="#807D7D"/>
<path d="M7.90436 12.9662C7.90436 12.8732 7.92587 12.7993 7.96888 12.7445C8.01189 12.6894 8.06887 12.6618 8.13982 12.6618C8.21261 12.6618 8.26941 12.6875 8.31022 12.739L8.31518 12.6728H8.40837V13.2551C8.40837 13.3323 8.3854 13.3932 8.33944 13.4377C8.29386 13.4822 8.23247 13.5044 8.15526 13.5044C8.11225 13.5044 8.07016 13.4952 8.02899 13.4768C7.98781 13.4584 7.95638 13.4333 7.93469 13.4013L7.98763 13.3401C8.03138 13.3941 8.08486 13.4211 8.1481 13.4211C8.19773 13.4211 8.23633 13.4072 8.2639 13.3792C8.29184 13.3513 8.30581 13.3119 8.30581 13.2612V13.2099C8.265 13.257 8.20931 13.2805 8.13872 13.2805C8.06887 13.2805 8.01226 13.2524 7.96888 13.1961C7.92587 13.1399 7.90436 13.0632 7.90436 12.9662ZM8.00693 12.9778C8.00693 13.0451 8.02071 13.098 8.04829 13.1366C8.07586 13.1748 8.11446 13.1939 8.16409 13.1939C8.22842 13.1939 8.27566 13.1647 8.30581 13.1063V12.8339C8.27456 12.7769 8.22769 12.7484 8.16519 12.7484C8.11556 12.7484 8.07678 12.7677 8.04884 12.8063C8.0209 12.8449 8.00693 12.902 8.00693 12.9778Z" fill="#807D7D"/>
<path d="M8.81037 13.2805C8.72949 13.2805 8.66369 13.254 8.61296 13.2011C8.56222 13.1478 8.53686 13.0767 8.53686 12.9877V12.969C8.53686 12.9098 8.54807 12.857 8.5705 12.8107C8.59329 12.764 8.6249 12.7276 8.66534 12.7015C8.70615 12.675 8.75026 12.6618 8.79769 12.6618C8.87525 12.6618 8.93554 12.6874 8.97856 12.7385C9.02157 12.7896 9.04307 12.8627 9.04307 12.9579V13.0004H8.63887C8.64034 13.0592 8.65744 13.1068 8.69016 13.1432C8.72324 13.1792 8.76515 13.1972 8.81588 13.1972C8.85191 13.1972 8.88242 13.1899 8.90742 13.1752C8.93242 13.1605 8.95429 13.141 8.97304 13.1167L9.03535 13.1653C8.98536 13.2421 8.91036 13.2805 8.81037 13.2805ZM8.79769 12.7456C8.75651 12.7456 8.72196 12.7607 8.69402 12.7908C8.66608 12.8206 8.6488 12.8625 8.64218 12.9166H8.94106V12.9088C8.93812 12.857 8.92415 12.8169 8.89915 12.7886C8.87415 12.76 8.84033 12.7456 8.79769 12.7456Z" fill="#807D7D"/>
<path d="M9.25758 12.6728L9.26034 12.739C9.30409 12.6875 9.36309 12.6618 9.43735 12.6618C9.5208 12.6618 9.5776 12.6938 9.60774 12.7578C9.6276 12.7291 9.65333 12.7059 9.68495 12.6883C9.71693 12.6706 9.75461 12.6618 9.79799 12.6618C9.92886 12.6618 9.9954 12.7311 9.99761 12.8697V13.2695H9.89559V12.8758C9.89559 12.8331 9.88585 12.8013 9.86637 12.7804C9.84688 12.759 9.81417 12.7484 9.76821 12.7484C9.73035 12.7484 9.69891 12.7598 9.67392 12.7826C9.64892 12.805 9.6344 12.8353 9.63035 12.8736V13.2695H9.52779V12.8785C9.52779 12.7918 9.48533 12.7484 9.4004 12.7484C9.3335 12.7484 9.28773 12.7769 9.2631 12.8339V13.2695H9.16108V12.6728H9.25758Z" fill="#807D7D"/>
<path d="M10.3996 13.2805C10.3187 13.2805 10.2529 13.254 10.2022 13.2011C10.1515 13.1478 10.1261 13.0767 10.1261 12.9877V12.969C10.1261 12.9098 10.1373 12.857 10.1597 12.8107C10.1825 12.764 10.2141 12.7276 10.2546 12.7015C10.2954 12.675 10.3395 12.6618 10.3869 12.6618C10.4645 12.6618 10.5248 12.6874 10.5678 12.7385C10.6108 12.7896 10.6323 12.8627 10.6323 12.9579V13.0004H10.2281C10.2296 13.0592 10.2467 13.1068 10.2794 13.1432C10.3125 13.1792 10.3544 13.1972 10.4051 13.1972C10.4411 13.1972 10.4717 13.1899 10.4967 13.1752C10.5217 13.1605 10.5435 13.141 10.5623 13.1167L10.6246 13.1653C10.5746 13.2421 10.4996 13.2805 10.3996 13.2805ZM10.3869 12.7456C10.3457 12.7456 10.3112 12.7607 10.2833 12.7908C10.2553 12.8206 10.238 12.8625 10.2314 12.9166H10.5303V12.9088C10.5274 12.857 10.5134 12.8169 10.4884 12.7886C10.4634 12.76 10.4296 12.7456 10.3869 12.7456Z" fill="#807D7D"/>
<path d="M10.8474 12.6728L10.8507 12.7478C10.8963 12.6905 10.9558 12.6618 11.0293 12.6618C11.1554 12.6618 11.219 12.7329 11.2201 12.8752V13.2695H11.1181V12.8747C11.1178 12.8316 11.1078 12.7998 11.0883 12.7793C11.0692 12.7587 11.0393 12.7484 10.9985 12.7484C10.9654 12.7484 10.9363 12.7572 10.9113 12.7748C10.8863 12.7925 10.8669 12.8157 10.8529 12.8443V13.2695H10.7509V12.6728H10.8474Z" fill="#807D7D"/>
<path d="M11.5124 12.5284V12.6728H11.6238V12.7517H11.5124V13.1217C11.5124 13.1456 11.5174 13.1636 11.5273 13.1757C11.5372 13.1875 11.5541 13.1934 11.578 13.1934C11.5898 13.1934 11.606 13.1912 11.6265 13.1868V13.2695C11.5997 13.2768 11.5736 13.2805 11.5482 13.2805C11.5027 13.2805 11.4683 13.2667 11.4451 13.2392C11.422 13.2116 11.4104 13.1724 11.4104 13.1217V12.7517H11.3018V12.6728H11.4104V12.5284H11.5124Z" fill="#807D7D"/>
<path d="M12.2761 12.9116C12.1853 12.8855 12.1192 12.8535 12.0776 12.8157C12.0364 12.7774 12.0159 12.7304 12.0159 12.6745C12.0159 12.6113 12.041 12.5591 12.0914 12.5179C12.1421 12.4763 12.2079 12.4556 12.2888 12.4556C12.344 12.4556 12.393 12.4662 12.4361 12.4875C12.4794 12.5089 12.5129 12.5383 12.5364 12.5758C12.5603 12.6133 12.5723 12.6543 12.5723 12.6987H12.4658C12.4658 12.6502 12.4504 12.6122 12.4195 12.5846C12.3886 12.5567 12.3451 12.5427 12.2888 12.5427C12.2366 12.5427 12.1958 12.5543 12.1664 12.5774C12.1374 12.6002 12.1228 12.632 12.1228 12.6728C12.1228 12.7056 12.1366 12.7333 12.1642 12.7561C12.1921 12.7785 12.2394 12.7991 12.3059 12.8179C12.3728 12.8366 12.425 12.8574 12.4625 12.8802C12.5004 12.9026 12.5283 12.9289 12.5463 12.959C12.5647 12.9892 12.5739 13.0246 12.5739 13.0655C12.5739 13.1305 12.5485 13.1827 12.4978 13.2221C12.4471 13.261 12.3793 13.2805 12.2943 13.2805C12.2392 13.2805 12.1877 13.27 12.1399 13.2491C12.0921 13.2278 12.0552 13.1987 12.0291 13.162C12.0034 13.1252 11.9905 13.0835 11.9905 13.0368H12.0969C12.0969 13.0853 12.1148 13.1237 12.1504 13.152C12.1864 13.18 12.2344 13.1939 12.2943 13.1939C12.3502 13.1939 12.393 13.1825 12.4228 13.1597C12.4526 13.137 12.4675 13.1059 12.4675 13.0666C12.4675 13.0272 12.4537 12.9969 12.4261 12.9756C12.3986 12.9539 12.3486 12.9326 12.2761 12.9116Z" fill="#807D7D"/>
<path d="M12.8893 13.12L13.0283 12.6728H13.1375L12.8976 13.3616C12.8605 13.4608 12.8015 13.5105 12.7206 13.5105L12.7013 13.5088L12.6632 13.5016V13.4189L12.6908 13.4211C12.7254 13.4211 12.7522 13.4141 12.7713 13.4002C12.7908 13.3862 12.8068 13.3607 12.8193 13.3235L12.8419 13.2629L12.6291 12.6728H12.7404L12.8893 13.12Z" fill="#807D7D"/>
<path d="M13.5764 13.1112C13.5764 13.0837 13.5659 13.0623 13.545 13.0473C13.5244 13.0318 13.4882 13.0186 13.4364 13.0076C13.3849 12.9965 13.3439 12.9833 13.3134 12.9679C13.2832 12.9524 13.2608 12.934 13.2461 12.9127C13.2318 12.8914 13.2246 12.866 13.2246 12.8366C13.2246 12.7877 13.2452 12.7464 13.2864 12.7125C13.3279 12.6787 13.3808 12.6618 13.4452 12.6618C13.5128 12.6618 13.5676 12.6793 13.6095 12.7142C13.6518 12.7491 13.6729 12.7938 13.6729 12.8482H13.5704C13.5704 12.8202 13.5584 12.7962 13.5345 12.776C13.511 12.7557 13.4812 12.7456 13.4452 12.7456C13.408 12.7456 13.379 12.7537 13.3581 12.7699C13.3371 12.7861 13.3266 12.8072 13.3266 12.8333C13.3266 12.8579 13.3364 12.8765 13.3558 12.889C13.3753 12.9015 13.4104 12.9134 13.4612 12.9248C13.5123 12.9362 13.5536 12.9498 13.5852 12.9656C13.6169 12.9815 13.6402 13.0006 13.6553 13.023C13.6707 13.0451 13.6784 13.0721 13.6784 13.1041C13.6784 13.1574 13.6571 13.2002 13.6145 13.2325C13.5718 13.2645 13.5165 13.2805 13.4485 13.2805C13.4007 13.2805 13.3584 13.2721 13.3217 13.2551C13.2849 13.2382 13.256 13.2147 13.2351 13.1846C13.2145 13.1541 13.2042 13.1211 13.2042 13.0859H13.3062C13.3081 13.12 13.3217 13.1473 13.347 13.1675C13.3728 13.1873 13.4066 13.1972 13.4485 13.1972C13.4871 13.1972 13.518 13.1895 13.5411 13.1741C13.5647 13.1583 13.5764 13.1373 13.5764 13.1112Z" fill="#807D7D"/>
<path d="M13.9497 12.5284V12.6728H14.0611V12.7517H13.9497V13.1217C13.9497 13.1456 13.9547 13.1636 13.9646 13.1757C13.9746 13.1875 13.9915 13.1934 14.0154 13.1934C14.0271 13.1934 14.0433 13.1912 14.0639 13.1868V13.2695C14.0371 13.2768 14.011 13.2805 13.9856 13.2805C13.94 13.2805 13.9056 13.2667 13.8825 13.2392C13.8593 13.2116 13.8477 13.1724 13.8477 13.1217V12.7517H13.7391V12.6728H13.8477V12.5284H13.9497Z" fill="#807D7D"/>
<path d="M14.4284 13.2805C14.3475 13.2805 14.2817 13.254 14.231 13.2011C14.1802 13.1478 14.1549 13.0767 14.1549 12.9877V12.969C14.1549 12.9098 14.1661 12.857 14.1885 12.8107C14.2113 12.764 14.2429 12.7276 14.2834 12.7015C14.3242 12.675 14.3683 12.6618 14.4157 12.6618C14.4933 12.6618 14.5536 12.6874 14.5966 12.7385C14.6396 12.7896 14.6611 12.8627 14.6611 12.9579V13.0004H14.2569C14.2584 13.0592 14.2755 13.1068 14.3082 13.1432C14.3413 13.1792 14.3832 13.1972 14.4339 13.1972C14.4699 13.1972 14.5004 13.1899 14.5254 13.1752C14.5504 13.1605 14.5723 13.141 14.5911 13.1167L14.6534 13.1653C14.6034 13.2421 14.5284 13.2805 14.4284 13.2805ZM14.4157 12.7456C14.3745 12.7456 14.34 12.7607 14.312 12.7908C14.2841 12.8206 14.2668 12.8625 14.2602 12.9166H14.5591V12.9088C14.5561 12.857 14.5422 12.8169 14.5172 12.7886C14.4922 12.76 14.4584 12.7456 14.4157 12.7456Z" fill="#807D7D"/>
<path d="M14.8756 12.6728L14.8784 12.739C14.9221 12.6875 14.9811 12.6618 15.0554 12.6618C15.1388 12.6618 15.1956 12.6938 15.2258 12.7578C15.2456 12.7291 15.2713 12.7059 15.303 12.6883C15.3349 12.6706 15.3726 12.6618 15.416 12.6618C15.5469 12.6618 15.6134 12.7311 15.6156 12.8697V13.2695H15.5136V12.8758C15.5136 12.8331 15.5039 12.8013 15.4844 12.7804C15.4649 12.759 15.4322 12.7484 15.3862 12.7484C15.3484 12.7484 15.3169 12.7598 15.2919 12.7826C15.2669 12.805 15.2524 12.8353 15.2484 12.8736V13.2695H15.1458V12.8785C15.1458 12.7918 15.1033 12.7484 15.0184 12.7484C14.9515 12.7484 14.9057 12.7769 14.8811 12.8339V13.2695H14.7791V12.6728H14.8756Z" fill="#807D7D"/>
<path fill-rule="evenodd" clip-rule="evenodd" d="M9.97781 11.6818C9.70177 11.134 9.09449 9.80322 8.87368 8.86239C8.87033 8.84823 8.86703 8.83406 8.86367 8.81966C8.59111 7.65888 8.32824 6.53961 8.87368 5.24374C9.31535 4.19462 9.98703 2.97744 10.2677 2.5C10.3091 2.72111 10.4333 3.22974 10.5989 3.49504C10.6554 3.58539 10.7394 3.71047 10.8364 3.85466C11.0952 4.23973 11.4458 4.7613 11.6064 5.1233C11.8273 5.62082 12.1585 6.66116 11.9515 7.76174C11.7445 8.86233 10.5299 11.6817 10.4193 11.6817H10.3911V9.88649C10.4871 9.88649 10.5625 9.80441 10.5544 9.70878L10.4845 8.88028C10.4632 8.62804 10.6391 8.38462 10.7991 8.18843C10.9029 8.0611 10.9607 7.90245 10.9631 7.73818C10.9551 7.54395 10.8723 7.36034 10.732 7.22575C10.5917 7.09116 10.4049 7.01601 10.2105 7.01601C10.0161 7.01601 9.82923 7.09116 9.68897 7.22575C9.5487 7.36034 9.46591 7.54395 9.45789 7.73818C9.46028 7.90247 9.51808 8.06113 9.62192 8.18846C9.77385 8.37476 9.94408 8.60017 9.92411 8.83974L9.85292 9.69403C9.84429 9.79763 9.92605 9.88649 10.03 9.88649V11.6818H9.97781Z" fill="url(#paint0_linear)"/>
<path opacity="0.732" fill-rule="evenodd" clip-rule="evenodd" d="M9.30545 6.1479C9.60958 5.66216 9.89148 5.18827 10.0845 4.96729C10.1214 5.13874 10.1813 5.30444 10.2625 5.45992C10.3745 5.65905 10.4659 5.69708 10.5327 5.7638C10.6761 5.90612 10.8027 6.06446 10.91 6.23569C11.0621 6.46601 11.1847 7.13403 11.0422 7.64351C11.0295 7.68964 11.0031 7.73085 10.9666 7.76176C10.9471 7.80022 10.9557 7.6824 10.91 7.5199C10.8776 7.41033 10.8179 7.31076 10.7367 7.23048C10.62 7.12029 10.414 7.01462 10.3126 7.01462C10.1541 7.00355 9.99509 7.02838 9.84747 7.08727C9.70004 7.15124 9.52698 7.39201 9.52698 7.39201C9.52698 7.39201 8.92984 6.74779 9.30545 6.1479Z" fill="url(#paint1_linear)"/>
<defs>
<linearGradient id="paint0_linear" x1="12.0345" y1="1.49275" x2="9.28748" y2="10.619" gradientUnits="userSpaceOnUse">
<stop stop-color="#FFB01C"/>
<stop offset="0.768392" stop-color="#F27405"/>
</linearGradient>
<linearGradient id="paint1_linear" x1="10.5916" y1="6.15244" x2="9.77002" y2="7.54953" gradientUnits="userSpaceOnUse">
<stop stop-color="#FDA477" stop-opacity="0.6"/>
<stop offset="1" stop-color="#FFE9DE" stop-opacity="0.4"/>
</linearGradient>
</defs>
</svg>
